<svg xmlns="http://www.w3.org/2000/svg" width="186" height="59" fill="none"><path fill="#fff" d="M49.269 33.915c0 13.578-11.008 24.585-24.586 24.585S.098 47.493.098 33.915c0-13.579 11.007-24.586 24.585-24.586 13.578 0 24.586 11.007 24.586 24.586z"/><path fill="#FF5227" fill-rule="evenodd" d="M22.758 51.969c0 1.868-1.613 3.355-3.424 2.894a21.495 21.495 0 0 1-6.08-2.599c-1.566-.977-1.634-3.137-.329-4.442l4.4-4.399c2.004-2.005 5.433-.585 5.433 2.251v6.295zm-12.355-6.914c-1.334 1.334-3.55 1.227-4.488-.41A21.476 21.476 0 0 1 3.6 38.704c-.406-1.794 1.072-3.36 2.912-3.36h5.917c2.835 0 4.256 3.43 2.25 5.435l-4.276 4.276zm-3.674-13.45c-1.891 0-3.384-1.651-2.879-3.474a21.498 21.498 0 0 1 2.436-5.57c.973-1.573 3.139-1.645 4.447-.337l3.947 3.947c2.005 2.005.585 5.434-2.251 5.434h-5.7zm6.744-11.93c-1.33-1.331-1.228-3.54.401-4.483a21.48 21.48 0 0 1 5.46-2.226c1.811-.46 3.424 1.026 3.424 2.894v5.415c0 2.836-3.429 4.256-5.434 2.25l-3.851-3.85zm22.563 32.637c1.574-.973 1.646-3.14.337-4.448l-4.44-4.44c-2.006-2.006-5.435-.586-5.435 2.25v6.322c0 1.862 1.602 3.347 3.41 2.898a21.489 21.489 0 0 0 6.128-2.582zm2.887-7.187c1.33 1.33 3.54 1.228 4.483-.401a21.476 21.476 0 0 0 2.36-6.02c.406-1.794-1.072-3.36-2.912-3.36h-6.026c-2.836 0-4.257 3.43-2.251 5.434l4.346 4.347zm3.714-13.52c1.891 0 3.384-1.651 2.88-3.474a21.5 21.5 0 0 0-2.484-5.646c-.977-1.566-3.137-1.633-4.442-.328l-4.014 4.014c-2.005 2.005-.585 5.434 2.25 5.434h5.81zm-6.813-11.97c1.334-1.335 1.226-3.55-.41-4.489a21.482 21.482 0 0 0-5.506-2.211c-1.808-.449-3.41 1.036-3.41 2.898v5.442c0 2.836 3.429 4.256 5.434 2.25l3.892-3.89zM24.684 58.5c13.577 0 24.585-11.007 24.585-24.586 0-13.578-11.008-24.585-24.586-24.585S.098 20.336.098 33.914C.098 47.493 11.105 58.5 24.683 58.5zm.054-20.02a4.62 4.62 0 1 0 0-9.24 4.62 4.62 0 0 0 0 9.24z" clip-rule="evenodd"/><path fill="#211F1E" d="M61.089 25.5v-14h5.76c1.013 0 1.94.173 2.78.52.84.333 1.56.813 2.16 1.44.6.613 1.06 1.353 1.38 2.22.32.853.48 1.793.48 2.82 0 1.04-.16 1.987-.48 2.84a6.438 6.438 0 0 1-1.38 2.22 6.394 6.394 0 0 1-2.16 1.44c-.827.333-1.754.5-2.78.5h-5.76zm3-2.2-.32-.5h2.98c.6 0 1.133-.1 1.6-.3.48-.2.886-.487 1.22-.86.346-.387.606-.84.78-1.36a5.74 5.74 0 0 0 .26-1.78 5.56 5.56 0 0 0-.26-1.76 3.606 3.606 0 0 0-.78-1.36 3.225 3.225 0 0 0-1.22-.88c-.467-.2-1-.3-1.6-.3h-3.04l.38-.46v9.56zm12.073 2.2v-14h6.2c.88 0 1.667.193 2.36.58.707.387 1.267.92 1.68 1.6.413.667.62 1.433.62 2.3 0 .84-.207 1.6-.62 2.28a4.556 4.556 0 0 1-1.68 1.62c-.693.4-1.48.6-2.36.6h-3.32v5.02h-2.88zm7.96 0-3.56-6.34 3.06-.5 3.96 6.86-3.46-.02zm-5.08-7.48h3.2c.36 0 .673-.08.94-.24.28-.173.493-.407.64-.7.16-.293.24-.627.24-1 0-.387-.093-.727-.28-1.02a1.807 1.807 0 0 0-.78-.7 2.48 2.48 0 0 0-1.16-.26h-2.8v3.92zm10.583 7.48v-2.58h2.34v-8.84h-2.34V11.5h7.66v2.58h-2.32v8.84h2.32v2.58h-7.66zm14.746 0-5.6-14h3.2l2.9 7.54c.16.413.3.787.42 1.12.12.32.22.62.3.9.094.267.18.533.26.8.08.253.167.533.26.84l-.6.02c.12-.427.234-.813.34-1.16a42.296 42.296 0 0 1 .86-2.52l2.76-7.54h3.16l-5.64 14h-2.62zm10.117 0v-14h9.44v2.64h-6.5v8.72h6.64v2.64h-9.58zm1.4-5.86v-2.56h7.08v2.56h-7.08zm11.095 5.86v-14h6.2c.88 0 1.667.193 2.36.58a4.4 4.4 0 0 1 1.68 1.6c.413.667.62 1.433.62 2.3 0 .84-.207 1.6-.62 2.28a4.552 4.552 0 0 1-1.68 1.62c-.693.4-1.48.6-2.36.6h-3.32v5.02h-2.88zm7.96 0-3.56-6.34 3.06-.5 3.96 6.86-3.46-.02zm-5.08-7.48h3.2c.36 0 .673-.08.94-.24.28-.173.493-.407.64-.7.16-.293.24-.627.24-1 0-.387-.093-.727-.28-1.02a1.81 1.81 0 0 0-.78-.7 2.479 2.479 0 0 0-1.16-.26h-2.8v3.92z"/><path fill="#211F1E" d="M60.64 51.5v-9.8h3.837c.7 0 1.33.117 1.89.35.569.233 1.054.57 1.456 1.008.4.439.709.957.924 1.554.214.597.322 1.26.322 1.988s-.108 1.395-.322 2.002a4.557 4.557 0 0 1-.924 1.554 3.95 3.95 0 0 1-1.442.994c-.57.233-1.204.35-1.904.35H60.64zm1.513-1.302-.042-.154h2.296c.494 0 .933-.08 1.316-.238.392-.159.718-.383.98-.672a2.99 2.99 0 0 0 .616-1.092c.14-.43.21-.91.21-1.442 0-.532-.07-1.008-.21-1.428a2.976 2.976 0 0 0-.616-1.092 2.7 2.7 0 0 0-.98-.686 3.412 3.412 0 0 0-1.316-.238h-2.338l.084-.126v7.168zm8.76 1.302v-9.8h4.172c.56 0 1.074.14 1.54.42.476.27.854.644 1.134 1.12.28.467.42.994.42 1.582a2.79 2.79 0 0 1-.42 1.484c-.28.457-.653.826-1.12 1.106a3.04 3.04 0 0 1-1.554.406h-2.66V51.5h-1.512zm5.824 0-2.492-4.424 1.554-.35 2.772 4.788-1.834-.014zm-4.312-5.138h2.8c.27 0 .514-.065.728-.196a1.46 1.46 0 0 0 .504-.56 1.76 1.76 0 0 0 .182-.798c0-.327-.08-.611-.238-.854a1.515 1.515 0 0 0-.644-.588c-.27-.14-.579-.21-.924-.21h-2.408v3.206zm7.659 5.138v-1.4h1.582v-7h-1.582v-1.4h4.676v1.4h-1.582v7h1.582v1.4h-4.676zm9.733 0-3.92-9.8h1.722l2.338 5.95c.112.29.21.55.294.784.093.233.173.448.238.644.066.187.126.364.182.532l.168.504-.364.014a51.753 51.753 0 0 1 .462-1.498c.103-.29.224-.616.364-.98l2.17-5.95h1.764l-3.948 9.8h-1.47zm6.56 0v-1.4h1.582v-7h-1.582v-1.4h4.676v1.4h-1.582v7h1.582v1.4h-4.676zm6.849 0v-9.8h1.358l5.992 8.022-.224.126a18.047 18.047 0 0 1-.168-1.33 39.99 39.99 0 0 1-.084-1.666 65.176 65.176 0 0 1-.028-1.932V41.7h1.512v9.8h-1.386l-5.894-7.728.154-.196a149.563 149.563 0 0 1 .238 2.828c.019.27.028.485.028.644.01.15.014.275.014.378V51.5h-1.512zm15.284.14a5.2 5.2 0 0 1-1.988-.378 5.2 5.2 0 0 1-1.624-1.078 4.948 4.948 0 0 1-1.092-1.596 5.2 5.2 0 0 1-.378-1.988c0-.7.126-1.353.378-1.96a4.907 4.907 0 0 1 1.078-1.582 5.006 5.006 0 0 1 1.624-1.064 5.2 5.2 0 0 1 1.988-.378c.495 0 .975.07 1.442.21.476.14.905.336 1.288.588.383.252.695.541.938.868l-.98 1.022a4.71 4.71 0 0 0-1.316-.91 3.261 3.261 0 0 0-1.372-.308 3.63 3.63 0 0 0-1.4.266c-.42.177-.793.425-1.12.742-.317.317-.565.69-.742 1.12-.177.42-.266.882-.266 1.386 0 .485.093.947.28 1.386.187.43.443.807.77 1.134.336.327.719.583 1.148.77a3.5 3.5 0 0 0 1.386.28c.364 0 .709-.051 1.036-.154.327-.112.616-.266.868-.462s.448-.42.588-.672c.14-.261.21-.537.21-.826v-.28l.21.196h-2.996v-1.498h4.34a3.253 3.253 0 0 1 .056.588c.009.084.014.168.014.252 0 .644-.112 1.232-.336 1.764a4.074 4.074 0 0 1-.938 1.358 4.222 4.222 0 0 1-1.386.896 4.633 4.633 0 0 1-1.708.308zm12.885 0c-.803 0-1.512-.159-2.128-.476-.607-.317-1.13-.793-1.568-1.428l1.036-1.19c.457.653.896 1.106 1.316 1.358.42.252.919.378 1.498.378.354 0 .676-.056.966-.168.289-.112.518-.266.686-.462.168-.196.252-.42.252-.672 0-.168-.028-.327-.084-.476a1.14 1.14 0 0 0-.266-.406 1.767 1.767 0 0 0-.448-.336 3.076 3.076 0 0 0-.63-.266 5.53 5.53 0 0 0-.84-.21 6.257 6.257 0 0 1-1.316-.406 3.111 3.111 0 0 1-.938-.63 2.419 2.419 0 0 1-.56-.854 3.102 3.102 0 0 1-.182-1.092c0-.532.149-1.003.448-1.414.298-.41.7-.733 1.204-.966a3.977 3.977 0 0 1 1.722-.364c.756 0 1.414.15 1.974.448.569.29 1.017.714 1.344 1.274l-1.064 1.05c-.28-.457-.616-.807-1.008-1.05a2.355 2.355 0 0 0-1.288-.364c-.364 0-.682.056-.952.168-.271.112-.486.27-.644.476-.15.196-.224.43-.224.7 0 .196.037.378.112.546.074.159.186.303.336.434.158.121.368.233.63.336a7.1 7.1 0 0 0 .938.252c.513.112.97.257 1.372.434a4 4 0 0 1 1.022.602c.28.233.49.495.63.784.149.29.224.602.224.938 0 .625-.145 1.167-.434 1.624-.29.457-.7.812-1.232 1.064-.532.243-1.167.364-1.904.364zm9.488 0a4.735 4.735 0 0 1-1.876-.364 4.352 4.352 0 0 1-1.484-1.036 4.932 4.932 0 0 1-.98-1.61 5.9 5.9 0 0 1-.336-2.03c0-.7.121-1.349.364-1.946a5.11 5.11 0 0 1 1.036-1.596 4.69 4.69 0 0 1 1.526-1.064 4.648 4.648 0 0 1 1.876-.378c.476 0 .938.075 1.386.224.457.14.868.34 1.232.602.373.252.677.541.91.868l-1.008 1.05c-.401-.41-.812-.719-1.232-.924a2.902 2.902 0 0 0-1.288-.308c-.457 0-.887.089-1.288.266a3.172 3.172 0 0 0-1.036.714 3.415 3.415 0 0 0-.686 1.106 3.7 3.7 0 0 0-.252 1.386c0 .532.079 1.017.238 1.456.168.43.401.798.7 1.106.299.308.653.546 1.064.714.42.159.882.238 1.386.238.308 0 .611-.042.91-.126.299-.084.579-.205.84-.364s.499-.345.714-.56l.756 1.232c-.215.252-.509.48-.882.686a5.228 5.228 0 0 1-1.232.49 5.58 5.58 0 0 1-1.358.168zm11.724-.14v-9.8h1.512v9.8h-1.512zm-6.398 0v-9.8h1.512v9.8h-1.512zm.658-4.158v-1.456h6.412v1.456h-6.412zm13.894 4.298a4.82 4.82 0 0 1-1.918-.378 4.805 4.805 0 0 1-1.526-1.05 5.055 5.055 0 0 1-1.008-1.596 5.654 5.654 0 0 1-.35-2.016c0-.728.117-1.395.35-2.002a4.854 4.854 0 0 1 1.008-1.596 4.7 4.7 0 0 1 1.526-1.064 4.82 4.82 0 0 1 1.918-.378c.691 0 1.326.126 1.904.378a4.497 4.497 0 0 1 1.526 1.064c.439.457.775.994 1.008 1.61.243.607.364 1.27.364 1.988 0 .719-.121 1.386-.364 2.002a4.725 4.725 0 0 1-1.008 1.596 4.497 4.497 0 0 1-1.526 1.064 4.714 4.714 0 0 1-1.904.378zm0-1.47a3.123 3.123 0 0 0 2.338-1.008c.29-.327.514-.705.672-1.134a3.96 3.96 0 0 0 .252-1.428c0-.513-.084-.985-.252-1.414a3.333 3.333 0 0 0-.672-1.134 2.962 2.962 0 0 0-1.036-.756 3.123 3.123 0 0 0-1.302-.266c-.476 0-.914.089-1.316.266a3.254 3.254 0 0 0-1.036.742 3.365 3.365 0 0 0-.672 1.134 4.11 4.11 0 0 0-.238 1.428c0 .69.14 1.307.42 1.848.28.532.663.952 1.148 1.26.495.308 1.06.462 1.694.462zm10.751 1.47a4.82 4.82 0 0 1-1.918-.378 4.805 4.805 0 0 1-1.526-1.05 5.055 5.055 0 0 1-1.008-1.596 5.654 5.654 0 0 1-.35-2.016c0-.728.117-1.395.35-2.002a4.854 4.854 0 0 1 1.008-1.596 4.7 4.7 0 0 1 1.526-1.064 4.82 4.82 0 0 1 1.918-.378c.691 0 1.326.126 1.904.378a4.497 4.497 0 0 1 1.526 1.064c.439.457.775.994 1.008 1.61.243.607.364 1.27.364 1.988 0 .719-.121 1.386-.364 2.002a4.725 4.725 0 0 1-1.008 1.596 4.497 4.497 0 0 1-1.526 1.064 4.714 4.714 0 0 1-1.904.378zm0-1.47a3.123 3.123 0 0 0 2.338-1.008c.29-.327.514-.705.672-1.134a3.96 3.96 0 0 0 .252-1.428c0-.513-.084-.985-.252-1.414a3.333 3.333 0 0 0-.672-1.134 2.962 2.962 0 0 0-1.036-.756 3.123 3.123 0 0 0-1.302-.266c-.476 0-.914.089-1.316.266a3.254 3.254 0 0 0-1.036.742 3.365 3.365 0 0 0-.672 1.134 4.11 4.11 0 0 0-.238 1.428c0 .69.14 1.307.42 1.848.28.532.663.952 1.148 1.26.495.308 1.06.462 1.694.462zm6.65 1.33v-9.8h1.512v8.344h4.592V51.5h-6.104z" opacity=".6"/></svg>