<?xml version="1.0" standalone="no"?>
<!DOCTYPE svg PUBLIC "-//W3C//DTD SVG 20010904//EN"
 "http://www.w3.org/TR/2001/REC-SVG-20010904/DTD/svg10.dtd">
<svg version="1.0" xmlns="http://www.w3.org/2000/svg"
 width="1600.000000pt" height="1600.000000pt" viewBox="0 0 1600.000000 1600.000000"
 preserveAspectRatio="xMidYMid meet">

<g transform="translate(0.000000,1600.000000) scale(0.100000,-0.100000)"
fill="#000000" stroke="none">
<path d="M6750 14593 c-47 -2 -176 -16 -285 -29 -84 -10 -395 -68 -442 -83
-17 -5 -34 -7 -37 -4 -3 3 -11 1 -18 -4 -7 -6 -33 -14 -58 -18 -24 -4 -51 -11
-60 -16 -8 -4 -49 -15 -90 -25 -41 -9 -79 -20 -85 -24 -5 -3 -57 -21 -115 -39
-58 -18 -113 -38 -124 -43 -10 -5 -60 -25 -110 -43 -50 -18 -118 -45 -151 -60
-33 -15 -76 -34 -95 -42 -110 -48 -337 -167 -495 -260 -444 -263 -809 -552
-1195 -948 -223 -229 -346 -372 -528 -615 -175 -234 -294 -417 -479 -735 -91
-156 -303 -587 -339 -689 -8 -22 -23 -58 -33 -80 -24 -51 -85 -208 -101 -261
-7 -22 -16 -44 -20 -50 -4 -5 -13 -28 -20 -50 -6 -22 -22 -69 -35 -105 -35
-98 -92 -286 -111 -365 -9 -38 -20 -74 -24 -80 -8 -10 -80 -330 -100 -445 -6
-36 -16 -74 -20 -85 -8 -18 -27 -126 -45 -255 -3 -25 -13 -85 -21 -135 -42
-262 -47 -388 -47 -1100 -1 -457 3 -720 11 -780 6 -49 13 -119 15 -155 11
-180 167 -999 206 -1085 6 -11 26 -83 47 -160 20 -77 43 -153 50 -170 7 -16
30 -84 50 -150 21 -66 41 -122 44 -125 4 -3 11 -16 14 -30 13 -43 87 -243 107
-285 10 -22 51 -112 90 -200 74 -167 179 -380 229 -466 17 -27 30 -52 30 -55
0 -4 26 -49 58 -103 32 -53 61 -103 64 -111 18 -44 358 -544 389 -570 3 -3 10
-12 15 -21 5 -9 23 -34 40 -55 18 -22 59 -73 93 -115 204 -255 481 -542 781
-806 54 -47 215 -175 283 -224 26 -19 74 -53 105 -76 31 -24 64 -46 72 -50 8
-3 17 -9 20 -13 14 -16 277 -182 370 -233 209 -113 261 -140 390 -200 197 -92
399 -172 495 -197 28 -7 54 -17 59 -21 6 -5 16 -9 24 -9 8 0 28 -6 45 -14 18
-8 59 -22 92 -30 33 -9 67 -18 75 -20 8 -2 38 -9 65 -16 28 -6 59 -15 70 -20
11 -5 34 -11 50 -13 55 -9 190 -35 215 -42 14 -3 61 -11 105 -16 44 -6 89 -14
100 -19 37 -16 288 -34 485 -34 191 -1 195 -1 198 20 3 20 -3 21 -95 27 -54 4
-124 7 -155 7 -32 0 -77 4 -100 10 -24 5 -110 17 -192 26 -82 8 -156 19 -165
24 -9 5 -50 14 -91 20 -41 7 -79 16 -85 20 -5 4 -48 15 -95 25 -47 9 -89 21
-95 25 -5 4 -32 13 -60 19 -27 7 -54 16 -60 20 -5 5 -23 11 -40 15 -16 4 -66
21 -110 38 -213 81 -445 192 -640 308 -97 58 -287 180 -295 191 -3 3 -21 17
-41 30 -89 58 -162 114 -259 196 -160 135 -217 186 -349 316 -162 160 -444
481 -521 593 -8 12 -40 55 -71 95 -30 41 -79 110 -109 154 -30 44 -75 112
-101 150 -50 74 -139 223 -139 232 0 3 -10 19 -22 36 -13 18 -32 50 -44 72
-11 22 -36 67 -54 100 -81 146 -227 448 -285 590 -21 50 -41 95 -45 100 -4 6
-20 44 -35 85 -15 41 -40 111 -57 155 -89 240 -118 328 -190 570 -40 139 -103
383 -123 485 -10 47 -21 92 -25 100 -4 8 -22 103 -40 210 -18 107 -36 204 -41
215 -5 11 -14 67 -19 125 -6 58 -12 116 -14 130 -31 203 -58 515 -76 870 -10
195 -3 738 10 755 4 6 11 75 14 155 7 131 36 438 50 515 3 17 10 73 15 125 6
52 13 106 17 120 3 14 19 99 35 190 15 91 33 183 38 205 6 22 23 99 40 170 50
221 82 349 91 370 5 11 19 56 30 100 30 111 81 278 90 290 4 6 19 51 34 100
16 50 32 95 37 101 5 6 17 37 28 70 44 134 105 283 224 544 33 73 157 321 194
390 66 119 87 156 104 182 11 14 19 29 19 33 0 3 14 26 30 50 17 24 30 46 30
49 0 7 236 361 273 411 161 215 228 299 362 450 127 145 394 407 535 525 36
30 69 60 75 66 32 35 456 334 473 334 6 0 12 4 14 9 4 11 305 179 406 227 122
58 186 86 212 95 14 4 59 22 100 39 41 18 95 38 120 46 67 20 142 45 165 55
20 9 142 38 270 65 39 9 85 20 103 25 65 20 500 66 655 68 39 1 47 4 47 20 0
10 -6 21 -14 24 -14 6 -262 6 -356 0z"/>
<path d="M8425 14530 c-4 -6 16 -10 56 -10 73 0 74 5 2 14 -32 4 -54 3 -58 -4z"/>
<path d="M8385 13764 c-975 -65 -1883 -383 -2697 -944 -603 -415 -1124 -960
-1554 -1622 -153 -236 -153 -236 -232 -379 -39 -70 -182 -356 -182 -362 0 -3
-16 -40 -36 -84 -61 -133 -71 -156 -95 -223 -12 -36 -26 -67 -29 -70 -4 -3
-14 -36 -24 -75 -9 -38 -26 -94 -37 -123 -24 -65 -106 -363 -147 -532 -61
-248 -106 -525 -144 -880 -18 -171 -18 -958 0 -1130 47 -440 102 -746 196
-1087 440 -1588 1513 -2928 2915 -3637 219 -111 265 -132 491 -220 439 -172
884 -277 1410 -333 202 -21 724 -24 900 -5 359 39 469 56 700 108 608 135
1164 364 1683 695 123 79 293 194 332 226 6 4 48 37 95 72 47 36 146 117 220
180 1182 1013 1920 2493 2039 4091 69 925 -67 1855 -394 2705 -104 270 -268
612 -417 868 -51 88 -286 442 -353 532 -298 400 -643 758 -1015 1057 -317 254
-628 452 -995 633 -126 62 -277 132 -335 155 -463 187 -949 309 -1460 365
-139 16 -694 28 -835 19z m560 -344 c28 -6 83 -18 124 -26 l74 -16 -7 -231
c-3 -128 -7 -267 -8 -310 0 -43 -4 -80 -9 -82 -4 -3 -41 3 -81 14 -125 34
-227 45 -408 45 -185 1 -298 -11 -425 -45 -43 -11 -79 -19 -80 -17 -8 8 -22
614 -15 621 10 11 70 25 205 48 91 15 150 18 345 14 129 -2 258 -9 285 -15z
m-911 -277 c3 -115 9 -252 12 -305 5 -78 4 -98 -7 -102 -240 -72 -357 -122
-519 -221 -97 -59 -232 -152 -307 -213 -31 -24 -44 -30 -47 -21 -2 8 -19 120
-36 249 -18 129 -37 264 -42 300 l-10 65 72 67 c127 120 296 219 496 292 108
40 312 95 355 95 l26 1 7 -207z m1342 176 c310 -79 563 -210 723 -372 l54 -55
-42 -299 c-23 -164 -44 -304 -46 -311 -3 -7 -36 12 -89 53 -243 187 -569 356
-755 391 l-34 7 6 231 c4 127 7 266 7 310 l0 79 49 -7 c27 -3 84 -15 127 -27z
m-531 -614 c112 -17 246 -45 258 -55 6 -5 -11 -362 -43 -905 -6 -93 -13 -216
-16 -273 l-6 -102 -151 7 c-206 9 -302 9 -508 0 l-176 -8 -6 138 c-4 76 -19
349 -32 608 -14 258 -25 485 -23 504 3 33 6 36 53 48 47 12 192 38 260 46 79
10 300 5 390 -8z m-790 -167 c8 -98 65 -1083 65 -1132 0 -22 -2 -37 -5 -34 -7
6 -251 -43 -334 -68 -94 -27 -284 -91 -323 -108 -34 -15 -37 -15 -42 2 -7 21
-64 271 -76 332 -13 68 -88 404 -110 497 -30 123 -30 123 50 187 122 98 256
184 403 256 138 68 315 138 349 139 13 1 17 -13 23 -71z m1285 26 c145 -54
306 -137 455 -233 44 -28 222 -168 229 -180 3 -4 -13 -86 -34 -182 -22 -95
-49 -217 -60 -269 -22 -96 -36 -160 -85 -375 -15 -66 -31 -124 -36 -129 -5 -6
-36 1 -76 17 -171 65 -471 147 -588 159 l-30 3 3 110 c2 100 27 539 52 934 6
85 10 163 10 174 0 17 5 19 32 13 18 -4 76 -22 128 -42z m-356 -1291 l39 -5
-7 -87 c-18 -250 -41 -457 -63 -579 -14 -82 -19 -94 -43 -105 -17 -9 -35 -11
-49 -5 -12 4 -141 9 -287 10 -229 3 -264 1 -266 -12 -1 -8 -4 17 -8 55 -4 39
-10 81 -13 95 -2 14 -7 52 -11 85 -4 33 -11 94 -16 135 -8 63 -21 203 -34 363
-2 23 1 40 8 43 53 21 626 26 750 7z m-849 -23 c7 -11 28 -248 45 -497 9 -149
3 -323 -10 -243 l-5 35 -33 -32 c-34 -33 -52 -41 -52 -23 0 6 -58 10 -152 11
-211 1 -260 8 -273 37 -5 12 -15 20 -22 17 -7 -2 -12 -1 -11 3 1 4 -3 16 -9
27 -6 11 -32 97 -57 190 -26 94 -54 191 -62 217 -8 26 -14 50 -14 53 0 12 225
113 320 143 82 26 186 50 280 65 45 7 49 7 55 -3z m1114 -15 c51 -9 134 -30
185 -47 90 -30 316 -132 316 -142 0 -4 -15 -61 -34 -129 -19 -67 -40 -146 -47
-174 -7 -29 -16 -53 -20 -53 -4 0 -5 -8 -2 -18 2 -10 -3 -31 -11 -47 -9 -17
-16 -38 -16 -47 0 -11 -8 -18 -18 -18 -11 0 -25 -14 -35 -36 -12 -25 -22 -34
-33 -30 -9 3 -108 6 -220 6 l-204 0 -6 30 c-9 43 -24 37 -24 -10 0 -56 -26
-54 -36 3 -4 23 -7 44 -7 47 1 3 6 70 12 150 27 337 42 516 46 527 3 8 15 11
32 8 15 -2 70 -11 122 -20z m358 -707 c-3 -8 -6 -5 -6 6 -1 11 2 17 5 13 3 -3
4 -12 1 -19z m-1939 -63 c-3 -3 -9 2 -12 12 -6 14 -5 15 5 6 7 -7 10 -15 7
-18z m1452 5 c0 -5 -4 -10 -10 -10 -5 0 -10 5 -10 10 0 6 5 10 10 10 6 0 10
-4 10 -10z m-943 -62 c-3 -7 -5 -2 -5 12 0 14 2 19 5 13 2 -7 2 -19 0 -25z
m3794 -773 c-1 -15 -24 -12 -29 3 -3 9 2 13 12 10 10 -1 17 -7 17 -13z m-4081
-349 c58 -13 140 -36 181 -50 42 -14 86 -26 100 -26 14 0 46 18 74 41 28 23
64 48 82 55 34 15 132 18 198 6 43 -8 47 -14 80 -136 9 -32 19 -55 23 -51 4 3
9 30 12 58 l5 52 205 3 c168 2 206 5 213 17 7 13 107 15 761 15 l754 0 6 -24
c7 -29 -3 -114 -15 -122 -5 -3 -37 -10 -71 -15 -84 -14 -133 -43 -158 -94 -20
-41 -20 -57 -18 -1065 l3 -1022 37 -32 c22 -20 67 -42 113 -56 46 -14 80 -31
86 -42 6 -10 9 -42 7 -71 l-3 -52 -755 0 -755 0 -3 61 c-2 41 1 64 10 72 7 5
50 20 96 31 100 25 138 49 152 99 8 26 10 344 8 1037 -3 1143 4 1056 -90 1100
-29 13 -79 32 -110 41 -50 13 -58 19 -58 40 0 14 -6 24 -14 24 -8 0 -70 -18
-138 -39 -67 -22 -151 -45 -184 -51 -34 -7 -67 -16 -75 -20 -10 -7 -3 -46 40
-199 29 -104 51 -198 49 -208 -3 -16 -17 -18 -146 -21 -116 -2 -149 1 -177 14
-23 10 -70 59 -132 138 -162 202 -285 311 -400 352 -57 20 -161 18 -203 -4
-41 -22 -70 -72 -70 -122 0 -49 46 -140 121 -240 35 -47 181 -204 324 -350
405 -412 488 -501 597 -645 67 -89 129 -208 154 -300 21 -78 30 -284 15 -356
-47 -226 -268 -405 -587 -475 -57 -12 -122 -17 -229 -16 -157 1 -188 6 -389
66 -126 37 -117 39 -223 -39 -29 -22 -151 -39 -208 -30 -56 8 -49 -9 -126 290
-32 127 -70 271 -83 320 -18 67 -21 93 -13 103 8 11 45 13 163 10 135 -3 154
-5 174 -23 13 -11 61 -78 108 -150 115 -173 236 -297 344 -350 153 -75 316
-55 392 48 31 42 27 117 -12 194 -55 108 -135 194 -562 603 -301 289 -494 509
-579 661 -102 182 -124 435 -51 595 42 92 93 156 175 219 111 84 226 132 370
155 96 15 286 4 405 -24z m-2047 -45 c37 -33 52 -74 103 -281 18 -74 78 -308
133 -520 55 -212 131 -509 170 -660 131 -508 199 -765 210 -792 17 -43 91
-118 148 -150 l53 -30 0 -64 c0 -58 -2 -64 -22 -69 -13 -3 -320 -4 -683 -3
l-660 3 0 55 0 55 74 36 c92 44 111 66 111 131 0 49 -42 234 -61 270 -9 17
-32 18 -372 18 -199 0 -367 -4 -374 -8 -6 -4 -19 -41 -28 -82 -9 -41 -21 -86
-27 -100 -48 -113 -16 -173 117 -216 88 -29 95 -36 95 -104 l0 -60 -406 2
c-462 3 -442 -1 -414 80 12 33 27 51 65 76 100 65 112 78 133 144 12 35 91
324 178 643 86 319 203 751 260 960 57 209 104 394 104 411 0 46 -31 78 -104
109 -53 23 -66 33 -71 55 -6 26 2 94 12 113 2 4 278 7 613 7 l609 0 34 -29z
m6687 16 c39 -19 67 -90 120 -299 27 -106 67 -263 89 -348 22 -85 63 -245 91
-355 28 -110 62 -240 75 -290 13 -49 71 -274 129 -500 58 -225 111 -427 118
-447 23 -66 74 -126 149 -174 l71 -45 -4 -56 c-3 -32 -11 -59 -19 -64 -8 -5
-307 -9 -681 -9 l-667 0 -3 28 c-8 74 -1 87 74 123 82 40 118 77 118 123 0 40
-57 265 -72 283 -15 19 -731 19 -746 1 -5 -7 -17 -44 -25 -83 -9 -38 -23 -90
-32 -114 -36 -102 -7 -146 132 -201 76 -30 83 -35 89 -65 3 -17 4 -45 2 -61
l-3 -29 -410 0 -410 0 -3 34 c-5 51 13 83 71 121 92 60 116 88 136 160 11 36
47 169 81 295 34 127 149 550 255 940 228 839 207 757 195 791 -13 33 -31 48
-90 74 -76 35 -75 33 -78 95 -2 32 -1 64 2 71 7 19 1207 20 1246 1z m-4161
-4514 c18 -21 22 -34 17 -61 -19 -121 -216 -137 -216 -18 0 95 137 149 199 79z
m1251 22 c38 -20 53 -49 46 -90 -12 -60 -96 -108 -158 -90 -41 13 -58 36 -58
77 0 54 15 76 63 99 51 23 69 23 107 4z m-2790 -9 c186 -31 300 -103 358 -226
12 -26 16 -66 16 -155 1 -117 0 -122 -33 -190 -74 -151 -214 -247 -441 -302
-93 -22 -720 -32 -720 -11 0 23 22 38 54 38 54 0 92 32 109 92 39 134 148 652
143 673 -6 23 -53 45 -98 45 -18 0 -25 30 -11 43 13 14 535 7 623 -7z m782
-273 c22 -20 24 -77 4 -151 -7 -29 -10 -52 -7 -52 3 0 18 20 34 44 69 110 166
186 219 173 37 -10 78 -46 78 -69 0 -30 -38 -87 -72 -108 -29 -17 -31 -17 -74
1 -39 18 -46 18 -71 5 -67 -34 -129 -157 -168 -331 -15 -66 -28 -121 -30 -122
-5 -8 -181 -33 -193 -28 -9 3 -12 12 -7 23 14 35 115 448 115 469 0 29 -13 29
-65 -2 -41 -23 -43 -24 -59 -6 -15 16 -14 19 7 38 35 32 137 95 187 114 57 23
79 23 102 2z m699 7 c32 -18 24 -88 -36 -300 -30 -107 -55 -198 -55 -202 0
-16 34 -7 77 18 43 25 45 25 58 7 17 -23 10 -31 -76 -89 -113 -75 -213 -102
-251 -67 -28 25 -23 66 32 271 27 103 50 197 50 210 l0 22 -51 -26 c-41 -21
-53 -23 -60 -12 -16 24 -9 33 54 75 74 49 95 60 162 84 59 21 70 22 96 9z
m404 0 c50 -19 68 -97 91 -378 l7 -83 29 28 c45 43 119 143 140 191 22 48 26
118 9 135 -32 32 13 101 74 113 42 8 90 -17 102 -53 27 -78 -14 -140 -274
-418 -161 -172 -171 -180 -210 -183 l-41 -3 -6 48 c-3 26 -11 98 -16 158 -13
133 -36 291 -45 305 -10 16 -26 12 -67 -17 -36 -25 -40 -25 -55 -10 -16 16
-15 19 12 48 44 45 121 100 163 115 46 16 54 17 87 4z m876 0 c32 -17 24 -84
-36 -294 -30 -106 -55 -199 -55 -205 0 -18 30 -13 75 14 41 24 43 24 59 6 17
-18 15 -21 -47 -65 -77 -55 -164 -96 -218 -103 -80 -11 -98 46 -59 182 44 154
81 306 78 320 -3 14 -10 12 -51 -10 -51 -27 -67 -26 -67 4 0 28 144 118 235
147 50 16 62 16 86 4z m478 -22 c13 -23 13 -37 3 -95 -6 -37 -15 -79 -19 -93
-5 -20 7 -12 63 40 82 77 168 136 236 162 86 32 129 21 148 -38 15 -44 6 -93
-52 -307 -24 -87 -37 -152 -32 -157 5 -5 29 3 57 21 47 29 50 29 63 12 12 -16
9 -22 -29 -56 -58 -52 -190 -117 -237 -117 -86 0 -89 49 -16 305 45 158 56
225 36 225 -36 0 -136 -80 -219 -174 -47 -55 -61 -88 -98 -245 -13 -55 -23
-75 -38 -81 -30 -12 -176 -32 -182 -26 -3 3 13 73 36 155 58 208 91 334 91
349 0 19 -23 15 -73 -13 -45 -25 -45 -25 -52 -5 -3 11 -4 24 -1 29 13 21 145
103 196 121 70 25 100 22 119 -12z m1096 7 c47 -19 114 -19 185 -1 45 12 57
12 68 2 11 -11 6 -19 -28 -46 -22 -18 -60 -38 -83 -45 l-42 -12 3 -45 c3 -31
-4 -62 -18 -97 -38 -87 -123 -146 -265 -184 -74 -20 -91 -28 -93 -44 -2 -17 8
-26 49 -44 177 -81 255 -125 276 -158 53 -80 11 -157 -119 -220 -206 -99 -473
-90 -573 20 -67 75 -38 127 116 203 l106 52 -23 28 c-13 15 -24 35 -24 45 0
21 33 52 79 76 l34 17 -54 27 c-71 34 -99 76 -99 148 0 68 18 110 71 168 102
111 309 163 434 110z"/>
<path d="M8171 10574 c0 -11 3 -14 6 -6 3 7 2 16 -1 19 -3 4 -6 -2 -5 -13z"/>
<path d="M9072 9210 c14 -22 20 -23 68 -13 l33 6 -49 13 c-65 17 -66 17 -52
-6z"/>
<path d="M5033 8698 c-14 -24 -323 -1273 -320 -1298 l2 -25 335 0 335 0 3 22
c2 11 -13 86 -32 165 -58 239 -144 593 -188 773 -69 291 -88 359 -101 367 -17
11 -25 10 -34 -4z"/>
<path d="M11743 8702 c-9 -6 -121 -432 -208 -792 -12 -52 -46 -188 -75 -302
-29 -114 -50 -214 -46 -223 5 -13 49 -15 334 -15 262 0 332 3 341 13 8 10 -28
172 -144 653 -85 351 -158 645 -163 653 -11 18 -24 23 -39 13z"/>
<path d="M6569 4700 c-9 -5 -24 -38 -33 -72 -35 -138 -136 -608 -136 -636 0
-41 31 -65 93 -70 154 -12 307 64 392 198 53 82 74 145 82 240 13 172 -73 306
-217 339 -56 13 -160 14 -181 1z"/>
<path d="M10965 4428 c-28 -16 -43 -35 -70 -93 -26 -54 -42 -148 -31 -189 24
-97 141 -60 185 60 26 68 29 179 5 212 -17 24 -56 29 -89 10z"/>
<path d="M10783 3811 c-43 -27 -83 -79 -83 -110 0 -81 137 -141 257 -112 142
35 128 118 -32 191 -111 51 -109 50 -142 31z"/>
</g>
</svg>
